<?xml version="1.0" encoding="UTF-8" standalone="no"?>
<svg width="105px" height="68px" viewBox="0 0 105 68" version="1.1" xmlns="http://www.w3.org/2000/svg" xmlns:xlink="http://www.w3.org/1999/xlink" xmlns:sketch="http://www.bohemiancoding.com/sketch/ns">
    <!-- Generator: Sketch 3.3.3 (12081) - http://www.bohemiancoding.com/sketch -->
    <title>Logo</title>
    <desc>Created with Sketch.</desc>
    <defs></defs>
    <g id="Home" stroke="none" stroke-width="1" fill="none" fill-rule="evenodd" sketch:type="MSPage">
        <g id="Desktop" sketch:type="MSArtboardGroup" transform="translate(-455.000000, -40.000000)" fill="#F3717F">
            <g id="Logo" sketch:type="MSLayerGroup" transform="translate(455.000000, 40.000000)">
                <path d="M24.9635794,58 L23.9446977,58 L20.5011355,66.1446048 L20.4624438,66.1446048 L17.0124331,58 L16,58 L16,67.3053561 L16.8254231,67.3053561 L16.8254231,59.6701921 L16.8641148,59.6701921 L20.0948726,67.2602158 L20.8622582,67.2602158 L24.0994645,59.6701921 L24.1381562,59.6701921 L24.1381562,67.3053561 L24.9635794,67.3053561 L24.9635794,58 Z M33.5012416,67.3053561 L34.4298427,67.3053561 L30.9540374,58 L30.0770253,58 L26.5947715,67.3053561 L27.5298211,67.3053561 L28.5616001,64.4550669 L32.4694627,64.4550669 L33.5012416,67.3053561 Z M30.4961855,59.0898165 L30.5348772,59.0898165 L32.2050694,63.6941299 L28.8259934,63.6941299 L30.4961855,59.0898165 Z M38.1310412,67.3053561 L38.1310412,58.7996287 L41.2457239,58.7996287 L41.2457239,58 L34.1328979,58 L34.1328979,58.7996287 L37.2475805,58.7996287 L37.2475805,67.3053561 L38.1310412,67.3053561 Z M48.5903918,66.5057275 L43.8506573,66.5057275 L43.8506573,62.933193 L48.3517929,62.933193 L48.3517929,62.1464615 L43.8506573,62.1464615 L43.8506573,58.7996287 L48.5903918,58.7996287 L48.5903918,58 L42.9736453,58 L42.9736453,67.3053561 L48.5903918,67.3053561 L48.5903918,66.5057275 Z M51.5822423,58.7867314 L53.9295394,58.7867314 C55.2837492,58.7867314 56.1027237,59.5154253 56.1027237,60.7471114 C56.1027237,61.9916947 55.3095437,62.7139399 53.9617825,62.7139399 L51.5822423,62.7139399 L51.5822423,58.7867314 Z M51.5822423,63.4942227 L53.9617825,63.4942227 L54.1036521,63.4942227 L56.2445933,67.3053561 L57.2699236,67.3053561 L55.0193559,63.3523531 C56.2639392,63.0299222 57.0119789,62.036835 57.0119789,60.7213169 C57.0119789,59.064022 55.8512276,58 54.0327173,58 L50.7052302,58 L50.7052302,67.3053561 L51.5822423,67.3053561 L51.5822423,63.4942227 Z M59.9199974,67.3053561 L59.9199974,59.5283225 L59.9651378,59.5283225 L65.4400147,67.3053561 L66.2912323,67.3053561 L66.2912323,58 L65.4206688,58 L65.4206688,65.770585 L65.3755285,65.770585 L59.9199974,58 L59.049434,58 L59.049434,67.3053561 L59.9199974,67.3053561 Z M69.5216817,67.3053561 L69.5216817,58 L68.6446696,58 L68.6446696,67.3053561 L69.5216817,67.3053561 Z M75.2477464,67.3053561 L75.2477464,58.7996287 L78.362429,58.7996287 L78.362429,58 L71.2496031,58 L71.2496031,58.7996287 L74.3642857,58.7996287 L74.3642857,67.3053561 L75.2477464,67.3053561 Z M83.611296,67.3053561 L83.611296,63.2814183 L86.9452316,58 L85.9392472,58 L83.1856872,62.4173035 L83.1534441,62.4173035 L80.3998841,58 L79.3938997,58 L82.7278353,63.2814183 L82.7278353,67.3053561 L83.611296,67.3053561 Z" id="MATERNITY" sketch:type="MSShapeGroup"></path>
                <path d="M48.8909243,45.3614962 C48.9750303,45.579816 49.0620341,45.7932098 49.151936,46.0016778 C49.7582649,47.4076578 50.4700315,48.5280313 51.2872574,49.3628319 C52.1044833,50.1976325 52.9876012,50.6150266 53.9366377,50.6150266 L55.8610632,50.3645877 C56.5464785,50.1976275 57.2494579,49.9735528 57.9700226,49.6923568 C58.6905874,49.4111608 59.4067477,49.0904265 60.1185251,48.7301441 C60.8303024,48.3698617 61.520101,48.0051911 62.1879415,47.6361214 C62.9305166,47.2093541 63.6772314,46.7535735 64.4280913,46.2687761 C65.0081797,47.5502498 65.6806112,48.5815926 66.4454034,49.3628319 C67.2626293,50.1976325 68.1457472,50.6150266 69.0947837,50.6150266 L71.0192092,50.3645877 C71.7046244,50.1976275 72.4076039,49.9735528 73.1281686,49.6923568 C73.8487334,49.4111608 74.5648937,49.0904265 75.2766711,48.7301441 C75.9884484,48.3698617 76.678247,48.0051911 77.3460875,47.6361214 C77.7814013,47.3859411 78.2181377,47.1257901 78.6562978,46.8556679 L78.6562978,46.8556679 C78.6763437,46.8874664 78.6965482,46.919147 78.7169112,46.9507096 C79.4199011,48.0403441 80.3205936,48.923462 81.4190154,49.6000899 C82.5174373,50.2767177 83.8399174,50.6150266 85.3864954,50.6150266 C86.4585551,50.6150266 87.4690881,50.4304945 88.4181246,50.0614247 C89.3671611,49.692355 90.2414918,49.1914821 91.0411429,48.5587911 C91.840794,47.9261001 92.5525607,47.1791845 93.1764643,46.3180217 C93.8003679,45.456859 94.3276025,44.5341985 94.7581839,43.5500125 C95.1887653,42.5658265 95.5182869,41.5465063 95.7467586,40.4920213 C95.9752304,39.4375363 96.0894646,38.3918544 96.0894646,37.3549441 C96.0894646,36.3180339 95.9620495,35.2328093 95.7072157,34.099238 C95.4523818,32.9656666 95.0701367,31.8892293 94.560469,30.8698938 L94.7713649,30.5799119 C95.4040559,31.0017059 96.1597588,31.5245469 97.0384963,32.1484505 C97.9172338,32.7723541 98.809139,33.435791 99.7142386,34.138781 C100.619338,34.841771 101.476094,35.5623249 102.284533,36.3004644 C103.092971,37.0386039 103.73444,37.7240088 104.208958,38.3566998 L104.709836,34.6396588 C103.7608,33.4445758 102.737086,32.2846597 101.638664,31.1598757 C100.540242,30.0350918 99.3539644,29.0377397 98.079795,28.1677895 C96.8056257,27.2978394 95.4392094,26.6036472 93.9805051,26.0851921 C92.5218009,25.566737 90.9576716,25.3075133 89.2880704,25.3075133 C87.3372731,25.3075133 85.5798245,25.6633966 84.0156718,26.375174 C82.451519,27.0869514 81.1290389,28.0623354 80.0481918,29.3013552 C78.9673447,30.5403751 78.1369502,31.9990575 77.5569835,33.6774461 C76.9770167,35.3558347 76.6870377,37.1616132 76.6870377,39.0948356 C76.6870377,39.8436604 76.733151,40.5874939 76.8253784,41.3263426 C76.663939,41.4372413 76.5035902,41.5457767 76.3443318,41.651949 C75.8698135,41.9682945 75.3777279,42.2802416 74.8680602,42.5877997 C74.3583924,42.8953578 73.8619132,43.1677624 73.3786076,43.4050215 C72.8953019,43.6422806 72.4383653,43.8312064 72.0077839,43.9718044 C71.5772026,44.1124024 71.1949575,44.1827003 70.8610372,44.1827003 C70.7204392,44.1827003 70.5710561,44.081647 70.4128834,43.8795374 C70.2547106,43.6774278 70.1053275,43.4050232 69.9647295,43.0623156 C69.8241315,42.719608 69.7055037,42.3329693 69.6088426,41.9023879 C69.5121814,41.4718065 69.4638516,41.0280508 69.4638516,40.5711073 L69.4638516,40.2020394 C69.5165759,39.8505444 69.5868738,39.4902674 69.6747475,39.1211976 C69.7626213,38.7521279 69.8504937,38.4050318 69.9383675,38.0798989 C70.0262412,37.754766 70.1185073,37.4516062 70.2151684,37.1704102 C70.3118295,36.8892142 70.4040956,36.6607458 70.4919693,36.4849983 C71.3004078,34.9032708 72.1659513,33.2820245 73.0886256,31.6212106 C74.0113,29.9603968 74.9295669,28.2732461 75.8434539,26.559708 C76.7573409,24.8461699 77.6360652,23.1194766 78.4796532,21.3795763 C79.3232412,19.6396761 80.0657633,17.9041956 80.7072416,16.1730827 C81.34872,14.4419699 81.8583801,12.7196702 82.2362372,11.0061321 C82.6140943,9.29259397 82.8030201,7.60983691 82.8030201,5.95781042 C82.8030201,5.21967093 82.745903,4.49472337 82.6316671,3.782946 C82.5174312,3.07116863 82.3197183,2.4340935 82.0385223,1.8717015 C81.7573263,1.30930951 81.3706876,0.856766487 80.8785946,0.514058864 C80.3865016,0.171351241 79.7626073,0 79.0068931,0 C77.8996838,0 76.8100657,0.333915239 75.7380059,1.00175573 C74.6659462,1.66959623 73.6378388,2.58786314 72.6536528,3.75658401 C71.6694668,4.92530487 70.7292318,6.2961148 69.8329195,7.86905492 C68.9366073,9.44199503 68.1062128,11.1335393 67.3417112,12.9437386 C66.5772095,14.7539378 65.8918046,16.6431951 65.2854757,18.6115671 C64.6791468,20.5799391 64.1563059,22.5394943 63.7169371,24.4902915 C63.2775684,26.4410888 62.9436531,28.3347396 62.7151814,30.171301 C62.4867096,32.0078624 62.3724755,33.7081939 62.3724755,35.2723467 C62.3724755,37.1000711 62.510201,38.8536111 62.7856557,40.5330087 L62.7856557,40.5330087 C62.2408055,40.9313269 61.7076501,41.3043061 61.1861858,41.651949 C60.7116675,41.9682945 60.2195819,42.2802416 59.7099142,42.5877997 C59.2002464,42.8953578 58.7037672,43.1677624 58.2204616,43.4050215 C57.737156,43.6422806 57.2802193,43.8312064 56.8496379,43.9718044 C56.4190566,44.1124024 56.0368115,44.1827003 55.7028912,44.1827003 C55.5622932,44.1827003 55.4129101,44.081647 55.2547374,43.8795374 C55.0965646,43.6774278 54.9471815,43.4050232 54.8065835,43.0623156 C54.6659855,42.719608 54.5473577,42.3329693 54.4506966,41.9023879 C54.3540355,41.4718065 54.3057056,41.0280508 54.3057056,40.5711073 L54.3057056,40.2020394 C54.3584299,39.8505444 54.4287278,39.4902674 54.5166016,39.1211976 C54.6044753,38.7521279 54.6923477,38.4050318 54.7802215,38.0798989 C54.8680952,37.754766 54.9603613,37.4516062 55.0570224,37.1704102 C55.1536835,36.8892142 55.2459496,36.6607458 55.3338233,36.4849983 C56.1422618,34.9032708 57.0078053,33.2820245 57.9304797,31.6212106 C58.853154,29.9603968 59.7714209,28.2732461 60.6853079,26.559708 C61.5991949,24.8461699 62.4779192,23.1194766 63.3215072,21.3795763 C64.1650952,19.6396761 64.9076173,17.9041956 65.5490956,16.1730827 C66.190574,14.4419699 66.7002341,12.7196702 67.0780912,11.0061321 C67.4559484,9.29259397 67.6448741,7.60983691 67.6448741,5.95781042 C67.6448741,5.21967093 67.587757,4.49472337 67.4735211,3.782946 C67.3592853,3.07116863 67.1615723,2.4340935 66.8803763,1.8717015 C66.5991803,1.30930951 66.2125416,0.856766487 65.7204486,0.514058864 C65.2283556,0.171351241 64.6044613,0 63.8487471,0 C62.7415378,0 61.6519197,0.333915239 60.57986,1.00175573 C59.5078002,1.66959623 58.4796928,2.58786314 57.4955068,3.75658401 C56.5113208,4.92530487 55.5710858,6.2961148 54.6747735,7.86905492 C53.7784613,9.44199503 52.9480668,11.1335393 52.1835652,12.9437386 C51.4190636,14.7539378 50.7336586,16.6431951 50.1273297,18.6115671 C49.5210009,20.5799391 48.9981599,22.5394943 48.5587911,24.4902915 C48.1194224,26.4410888 47.7855072,28.3347396 47.5570354,30.171301 C47.3285637,32.0078624 47.2143295,33.7081939 47.2143295,35.2723467 C47.2143295,36.8889345 47.3220731,38.4474874 47.537563,39.9480344 C47.2208652,40.2076761 46.8846505,40.4724844 46.5289177,40.7424602 C45.5447317,41.4893871 44.4990498,42.1791857 43.3918405,42.8118767 C42.2846313,43.4445677 41.1466833,43.9718022 39.9779624,44.3935962 C38.8092415,44.8153902 37.6976553,45.0262841 36.6431703,45.0262841 C36.30925,45.0262841 35.9973029,44.9911351 35.7073195,44.9208361 C35.4173362,44.8505371 35.140538,44.7275157 34.8769168,44.5517682 C34.6132955,44.3760207 34.3540718,44.1299779 34.099238,43.8136324 C33.8444041,43.4972869 33.5851804,43.101861 33.3215592,42.6273427 C34.8505624,42.2055487 36.2697022,41.6168034 37.579021,40.8610892 C38.8883399,40.1053749 40.0175007,39.2442251 40.9665372,38.2776139 C41.9155736,37.3110026 42.6580957,36.2828952 43.1941256,35.1932607 C43.7301554,34.1036262 43.9981663,33.014008 43.9981663,31.9243735 C43.9981663,30.9226128 43.8224215,30.0175268 43.4709265,29.2090883 C43.1194315,28.4006498 42.6317395,27.7108512 42.0078359,27.1396718 C41.3839323,26.5684924 40.6501975,26.1247367 39.8066095,25.8083912 C38.9630215,25.4920457 38.0491482,25.3338753 37.0649622,25.3338753 C35.8523044,25.3338753 34.7495054,25.5491627 33.7565321,25.9797441 C32.7635587,26.4103255 31.8672599,26.9902835 31.0676088,27.7196357 C30.2679577,28.4489878 29.5693718,29.2925631 28.9718303,30.250387 C28.3742888,31.2082109 27.8778096,32.2143502 27.4823777,33.2688352 C27.0869458,34.3233202 26.7925732,35.3997575 26.599251,36.4981793 C26.4059287,37.5966012 26.309269,38.6378895 26.309269,39.6220755 C26.309269,39.9727986 26.3212066,40.3197106 26.3450817,40.662812 C26.2017252,40.8019383 26.0579777,40.9383293 25.9138391,41.0719851 C25.5096199,41.4586296 25.079045,41.8320875 24.6221015,42.1923698 C24.165158,42.5526522 23.6994341,42.8733866 23.2249158,43.1545826 C22.7503976,43.4357786 22.2758865,43.6642469 21.8013682,43.8399944 C21.32685,44.0157419 20.8787006,44.1036143 20.4569066,44.1036143 C20.1229863,44.1036143 19.8505818,43.8927205 19.6396848,43.4709265 C19.4287878,43.0491325 19.3233409,42.4867489 19.3233409,41.7837589 C19.3233409,40.5008022 19.4859049,39.2705882 19.8110378,38.0930799 C20.1361706,36.9155717 20.4964476,35.7600492 20.8918795,34.6264778 C21.2873113,33.4929065 21.6519819,32.3593521 21.9859022,31.2257807 C22.3198224,30.0922094 22.48678,28.9278996 22.48678,27.7328167 C22.48678,27.1352752 22.4076949,26.6475832 22.2495221,26.269726 C22.0913494,25.8918689 21.8936364,25.5974963 21.6563773,25.3865993 C21.4191181,25.1757023 21.1686817,25.0307128 20.9050605,24.9516264 C20.6414392,24.87254 20.4041837,24.8329974 20.1932867,24.8329974 C19.3496987,24.8329974 18.4490062,25.1449446 17.4911824,25.7688482 C16.5333585,26.3927518 15.5711554,27.1748164 14.6045441,28.1150656 C13.6379329,29.0553147 12.7064851,30.0702413 11.8101729,31.1598757 C10.9138606,32.2495102 10.1054343,33.2688304 9.38486951,34.2178669 L8.85762965,33.848799 C9.45517115,32.7415898 10.1449697,31.4586523 10.9270461,29.9999481 C11.7091225,28.5412438 12.504368,26.9902954 13.3128065,25.3470563 C14.121245,23.7038172 14.9120969,22.0078792 15.6853858,20.2591916 C16.4586748,18.510504 17.1484734,16.7838107 17.7548023,15.07906 C18.3611312,13.3743093 18.8488232,11.7310948 19.2178929,10.1493673 C19.5869627,8.56763982 19.7714948,7.12653195 19.7714948,5.82600046 C19.7714948,4.94726296 19.7011968,4.15201746 19.5605988,3.44024009 C19.4200008,2.72846272 19.1695644,2.11774932 18.809282,1.60808157 C18.4489996,1.09841383 17.9657013,0.702987886 17.3593724,0.421791888 C16.7530435,0.14059589 15.9753725,0 15.026336,0 C13.198562,0 11.5817093,0.509660102 10.1757293,1.5289956 C8.76974931,2.54833109 7.5439289,3.92353464 6.49823128,5.6546475 C5.45253366,7.38576037 4.5650221,9.3892518 3.83566998,11.6651819 C3.10631786,13.941112 2.49999809,16.3312422 2.01669247,18.835644 C1.53338684,21.3400459 1.15992901,23.8751655 0.896307763,26.441079 C0.632686514,29.0069925 0.430579922,31.4498461 0.289981923,33.7697131 C0.149383924,36.08958 0.0659051144,38.202912 0.0395429895,40.1097724 C0.0131808647,42.0166327 0,43.5587939 0,44.7363022 C0,45.4744416 0.0263617294,46.1949956 0.0790859791,46.8979856 C0.131810229,47.6009756 0.246044389,48.2292635 0.421791888,48.7828681 C0.597539387,49.3364727 0.852369438,49.7802285 1.18628969,50.1141487 C1.52020993,50.448069 1.97714658,50.6150266 2.55711332,50.6150266 C2.99648207,50.6150266 3.35675904,50.5183669 3.63795504,50.3250447 C3.91915103,50.1317224 4.17837471,49.846137 4.41563383,49.4682799 C4.65289295,49.0904228 4.89454214,48.6071244 5.14058864,48.0183703 C5.38663514,47.4296162 5.70297589,46.7398176 6.08962039,45.9489538 C6.86290938,44.3496516 7.72845283,42.7987032 8.6862767,41.2960621 C9.64410057,39.7934209 10.5711547,38.4401855 11.467467,37.2363151 C12.3637792,36.0324448 13.167812,35.0350927 13.8795893,34.2442289 C14.5913667,33.4533652 15.0966332,32.9612796 15.3954039,32.7679573 L15.9490058,32.8470433 C15.8962815,32.8997676 15.7820474,33.0930869 15.6062999,33.4270071 C15.4305524,33.7609274 15.2240522,34.1915023 14.986793,34.7187448 C14.7495339,35.2459873 14.4947039,35.8435198 14.2222952,36.5113603 C13.9498866,37.1792008 13.7038438,37.8646058 13.4841594,38.5675958 C13.2644751,39.2705858 13.0799429,39.9691716 12.9305576,40.6633742 C12.7811722,41.3575769 12.7064806,41.9858647 12.7064806,42.5482567 C12.7064806,43.3918447 12.8207148,44.2881435 13.0491865,45.23718 C13.2776583,46.1862165 13.6203608,47.0605472 14.0773043,47.8601983 C14.5342478,48.6598494 15.1185994,49.3188927 15.8303768,49.8373478 C16.5421542,50.3558029 17.3813359,50.6150266 18.3479471,50.6150266 C18.9806381,50.6150266 19.644075,50.5095797 20.3382776,50.2986827 C21.0324802,50.0877857 21.7266724,49.8197748 22.4208751,49.4946419 C23.1150777,49.169509 23.8048763,48.7960512 24.4902915,48.3742572 C25.1757068,47.9524632 25.8127819,47.5350691 26.401536,47.1220625 C26.9471234,46.739337 27.4474276,46.3754817 27.9024614,46.0304872 C28.1649664,46.4807028 28.459911,46.9060718 28.7872964,47.3065965 C29.6133096,48.3171446 30.6458107,49.1211773 31.8848306,49.7187188 C33.1238504,50.3162603 34.5693519,50.6150266 36.2213784,50.6150266 L39.3452746,50.2591397 C40.3733974,50.0218806 41.3663559,49.7055398 42.3241798,49.3101079 C43.2820037,48.9146761 44.1958769,48.462133 45.0658271,47.9524653 C45.9357772,47.4427976 46.7485972,46.9243502 47.5043114,46.3971077 C47.9735477,46.0653245 48.4357517,45.7201209 48.8909243,45.3614962 Z M11.7310869,17.9261553 C12.7679971,15.2372185 13.5193064,12.9701098 13.9850373,11.1247611 C14.4507682,9.27941232 14.6836301,7.91738963 14.6836301,7.03865214 C14.6836301,5.70297114 14.5078852,5.03514067 14.1563903,5.03514067 C13.6994468,5.03514067 13.022829,5.78205633 12.1265168,7.27591007 C11.2302045,8.76976381 10.1757354,10.9402129 8.96307763,13.7873223 C8.66430688,14.7539336 8.38750872,15.7556793 8.13267485,16.7925896 C7.87784097,17.8294998 7.64937265,18.8620009 7.44726303,19.8901237 C7.2451534,20.9182466 7.0606213,21.9287796 6.89366117,22.9217529 C6.72670105,23.9147263 6.58171154,24.8593549 6.45868829,25.7556672 C6.15991754,27.8470624 5.93144922,29.8944901 5.77327647,31.8980116 C6.24779472,30.7908023 6.76624206,29.58695 7.32863406,28.2864185 C7.89102606,26.985887 8.44462237,25.6985559 8.98943962,24.4243865 C9.53425687,23.1502172 10.0483106,21.9463649 10.5316162,20.8127935 M32.7152333,38.2248899 C33.3479243,38.2248899 34.0377229,38.0623259 34.7846498,37.737193 C35.5315767,37.4120601 36.2257689,36.9946661 36.8672472,36.4849983 C37.5087256,35.9753306 38.0491411,35.4217343 38.4885098,34.8241928 C38.9278786,34.2266513 39.1475596,33.6466932 39.1475596,33.0843012 C39.1475596,32.2934375 39.0025701,31.6431815 38.7125867,31.1335138 C38.4226034,30.623846 38.06672,30.369016 37.644926,30.369016 C36.8892118,30.369016 36.2433494,30.5096118 35.7073195,30.7908078 C35.1712897,31.0720038 34.7231403,31.4366744 34.3628579,31.8848306 C34.0025755,32.3329867 33.7125965,32.8426468 33.4929121,33.4138262 C33.2732278,33.9850055 33.1062701,34.5605699 32.9920343,35.1405367 C32.8777984,35.7205034 32.8031068,36.282887 32.7679573,36.8277042 M53.9629997,29.5254322 C54.7538635,28.1194522 55.5930452,26.5377484 56.48057,24.7802734 C57.3680949,23.0227984 58.2072766,21.2126264 58.9981404,19.3497029 C59.7890041,17.4867794 60.4744091,15.6282775 61.0543758,13.7741414 C61.6343426,11.9200052 62.0034068,10.193312 62.1615795,8.59400972 C62.1615795,8.08434198 62.1483987,7.64937344 62.1220365,7.28909107 C62.0956744,6.9288087 62.0121956,6.74867021 61.8715976,6.74867021 C61.3619299,6.74867021 60.8127272,7.07819183 60.2239731,7.73724495 C59.6352189,8.39629807 59.0464736,9.28820325 58.4577195,10.4129872 C57.8689654,11.5377712 57.3065818,12.8470705 56.770552,14.3409242 C56.2345221,15.8347779 55.7556173,17.4252689 55.3338233,19.1124449 C54.9120293,20.7996209 54.5781141,22.5351014 54.3320676,24.3189386 M69.1211457,29.5254322 C69.9120094,28.1194522 70.7511912,26.5377484 71.638716,24.7802734 C72.5262409,23.0227984 73.3654226,21.2126264 74.1562864,19.3497029 C74.9471501,17.4867794 75.6325551,15.6282775 76.2125218,13.7741414 C76.7924886,11.9200052 77.1615528,10.193312 77.3197255,8.59400972 C77.3197255,8.08434198 77.3065447,7.64937344 77.2801825,7.28909107 C77.2538204,6.9288087 77.1703416,6.74867021 77.0297436,6.74867021 C76.5200759,6.74867021 75.9708732,7.07819183 75.382119,7.73724495 C74.7933649,8.39629807 74.2046196,9.28820325 73.6158655,10.4129872 C73.0271114,11.5377712 72.4647278,12.8470705 71.928698,14.3409242 C71.3926681,15.8347779 70.9137633,17.4252689 70.4919693,19.1124449 C70.0701753,20.7996209 69.7362601,22.5351014 69.4902136,24.3189386 M86.4146131,45.5535239 C87.0121546,45.5535239 87.5921127,45.250364 88.1545047,44.6440352 C88.7168967,44.0377063 89.2089823,43.2732162 89.6307763,42.3505418 C90.0525703,41.4278674 90.3908791,40.4085472 90.645713,39.2925506 C90.9005469,38.176554 91.0279619,37.1089039 91.0279619,36.0895684 C91.0279619,35.2811299 90.9664512,34.5298207 90.8434279,33.835618 C90.7204047,33.1414154 90.5358726,32.5394893 90.2898261,32.0298215 C90.0437796,31.5201538 89.7274388,31.1159406 89.3407943,30.8171698 C88.9541498,30.5183991 88.488426,30.369016 87.9436087,30.369016 C87.223044,30.369016 86.537639,30.6765695 85.8873733,31.2916857 C85.2371075,31.906802 84.6659367,32.6932602 84.1738437,33.6510841 C83.6817507,34.608908 83.295112,35.6677708 83.013916,36.8277042 C82.73272,37.9876377 82.5921241,39.1036176 82.5921241,40.1756774 C82.5921241,40.9138169 82.6624221,41.6080091 82.8030201,42.2582748 C82.9436181,42.9085406 83.1632991,43.4753177 83.4620699,43.9586234 C83.7608406,44.441929 84.1562666,44.8285677 84.6483596,45.1185511" id="hello" sketch:type="MSShapeGroup"></path>
            </g>
        </g>
    </g>
</svg>